<svg width="22" height="9" viewBox="0 0 22 9" fill="none" xmlns="http://www.w3.org/2000/svg">
<path d="M2.772 9H1.512C1.24 9 1.06 8.956 0.972 8.868C0.892 8.78 0.852 8.596 0.852 8.316V1.008C0.852 0.728 0.892 0.544 0.972 0.456C1.06 0.368 1.24 0.323999 1.512 0.323999H2.772V9ZM10.7608 0.323999H12.5608C13.1448 0.323999 13.5848 0.424 13.8808 0.624C14.1848 0.824 14.3368 1.172 14.3368 1.668V8.316C14.3368 8.596 14.2928 8.78 14.2048 8.868C14.1248 8.956 13.9488 9 13.6768 9H12.4168V1.812C12.4168 1.684 12.3968 1.596 12.3568 1.548C12.3248 1.492 12.2368 1.464 12.0928 1.464H10.7608V0.323999ZM6.40481 9H5.14481C4.87281 9 4.69281 8.956 4.60481 8.868C4.52481 8.78 4.48481 8.596 4.48481 8.316V0.804C4.48481 0.66 4.52481 0.544 4.60481 0.456C4.68481 0.368 4.78881 0.323999 4.91681 0.323999H6.40481V9ZM6.89681 0.323999H9.96881C10.0968 0.323999 10.2008 0.368 10.2808 0.456C10.3608 0.544 10.4008 0.66 10.4008 0.804V8.124H9.15281C8.91281 8.124 8.74081 8.06 8.63681 7.932C8.53281 7.796 8.48081 7.58 8.48081 7.284V1.812C8.48081 1.684 8.46081 1.596 8.42081 1.548C8.38881 1.492 8.30081 1.464 8.15681 1.464H6.89681V0.323999ZM18.0918 9H17.9478C17.6278 9 17.3598 8.976 17.1438 8.928C16.9358 8.88 16.7518 8.784 16.5918 8.64C16.4398 8.488 16.3198 8.32 16.2318 8.136C16.1518 7.952 16.0878 7.676 16.0398 7.308C15.9678 6.756 15.9318 6.016 15.9318 5.088C15.9318 4.152 15.9358 3.492 15.9438 3.108C15.9598 2.724 15.9918 2.352 16.0398 1.992C16.0878 1.624 16.1518 1.352 16.2318 1.176C16.3198 0.992 16.4398 0.828 16.5918 0.684C16.7518 0.532 16.9358 0.436 17.1438 0.396C17.3598 0.348 17.6278 0.323999 17.9478 0.323999H18.0918V9ZM18.5718 0.323999H20.0958C20.6798 0.323999 21.1198 0.424 21.4158 0.624C21.7198 0.824 21.8718 1.172 21.8718 1.668V2.748C21.8718 2.916 21.8158 3 21.7038 3H20.1918C20.0798 3 20.0118 2.984 19.9878 2.952C19.9638 2.92 19.9518 2.852 19.9518 2.748V1.812C19.9518 1.684 19.9318 1.596 19.8918 1.548C19.8598 1.492 19.7718 1.464 19.6278 1.464H18.5718V0.323999ZM20.1918 6.324H21.7038C21.8158 6.324 21.8718 6.408 21.8718 6.576V7.656C21.8718 8.152 21.7198 8.5 21.4158 8.7C21.1198 8.9 20.6798 9 20.0958 9H18.5718V7.86H19.6278C19.7718 7.86 19.8598 7.836 19.8918 7.788C19.9318 7.732 19.9518 7.64 19.9518 7.512V6.576C19.9518 6.472 19.9638 6.404 19.9878 6.372C20.0118 6.34 20.0798 6.324 20.1918 6.324Z" fill="white"/>
</svg>
