<svg width="22" height="9" viewBox="0 0 22 9" fill="none" xmlns="http://www.w3.org/2000/svg">
<mask id="path-1-outside-1_407_10" maskUnits="userSpaceOnUse" x="-1" y="-1" width="24" height="11" fill="black">
<rect fill="white" x="-1" y="-1" width="24" height="11"/>
<path d="M2.772 9H1.512C1.24 9 1.06 8.956 0.972 8.868C0.892 8.78 0.852 8.596 0.852 8.316V1.008C0.852 0.728 0.892 0.544 0.972 0.456C1.06 0.368 1.24 0.323999 1.512 0.323999H2.772V9ZM10.7608 0.323999H12.5608C13.1448 0.323999 13.5848 0.424 13.8808 0.624C14.1848 0.824 14.3368 1.172 14.3368 1.668V8.316C14.3368 8.596 14.2928 8.78 14.2048 8.868C14.1248 8.956 13.9488 9 13.6768 9H12.4168V1.812C12.4168 1.684 12.3968 1.596 12.3568 1.548C12.3248 1.492 12.2368 1.464 12.0928 1.464H10.7608V0.323999ZM6.40481 9H5.14481C4.87281 9 4.69281 8.956 4.60481 8.868C4.52481 8.78 4.48481 8.596 4.48481 8.316V0.804C4.48481 0.66 4.52481 0.544 4.60481 0.456C4.68481 0.368 4.78881 0.323999 4.91681 0.323999H6.40481V9ZM6.89681 0.323999H9.96881C10.0968 0.323999 10.2008 0.368 10.2808 0.456C10.3608 0.544 10.4008 0.66 10.4008 0.804V8.124H9.15281C8.91281 8.124 8.74081 8.06 8.63681 7.932C8.53281 7.796 8.48081 7.58 8.48081 7.284V1.812C8.48081 1.684 8.46081 1.596 8.42081 1.548C8.38881 1.492 8.30081 1.464 8.15681 1.464H6.89681V0.323999ZM18.0918 9H17.9478C17.6278 9 17.3598 8.976 17.1438 8.928C16.9358 8.88 16.7518 8.784 16.5918 8.64C16.4398 8.488 16.3198 8.32 16.2318 8.136C16.1518 7.952 16.0878 7.676 16.0398 7.308C15.9678 6.756 15.9318 6.016 15.9318 5.088C15.9318 4.152 15.9358 3.492 15.9438 3.108C15.9598 2.724 15.9918 2.352 16.0398 1.992C16.0878 1.624 16.1518 1.352 16.2318 1.176C16.3198 0.992 16.4398 0.828 16.5918 0.684C16.7518 0.532 16.9358 0.436 17.1438 0.396C17.3598 0.348 17.6278 0.323999 17.9478 0.323999H18.0918V9ZM18.5718 0.323999H20.0958C20.6798 0.323999 21.1198 0.424 21.4158 0.624C21.7198 0.824 21.8718 1.172 21.8718 1.668V2.748C21.8718 2.916 21.8158 3 21.7038 3H20.1918C20.0798 3 20.0118 2.984 19.9878 2.952C19.9638 2.92 19.9518 2.852 19.9518 2.748V1.812C19.9518 1.684 19.9318 1.596 19.8918 1.548C19.8598 1.492 19.7718 1.464 19.6278 1.464H18.5718V0.323999ZM20.1918 6.324H21.7038C21.8158 6.324 21.8718 6.408 21.8718 6.576V7.656C21.8718 8.152 21.7198 8.5 21.4158 8.7C21.1198 8.9 20.6798 9 20.0958 9H18.5718V7.86H19.6278C19.7718 7.86 19.8598 7.836 19.8918 7.788C19.9318 7.732 19.9518 7.64 19.9518 7.512V6.576C19.9518 6.472 19.9638 6.404 19.9878 6.372C20.0118 6.34 20.0798 6.324 20.1918 6.324Z"/>
</mask>
<path d="M2.772 9H1.512C1.24 9 1.06 8.956 0.972 8.868C0.892 8.78 0.852 8.596 0.852 8.316V1.008C0.852 0.728 0.892 0.544 0.972 0.456C1.06 0.368 1.24 0.323999 1.512 0.323999H2.772V9ZM10.7608 0.323999H12.5608C13.1448 0.323999 13.5848 0.424 13.8808 0.624C14.1848 0.824 14.3368 1.172 14.3368 1.668V8.316C14.3368 8.596 14.2928 8.78 14.2048 8.868C14.1248 8.956 13.9488 9 13.6768 9H12.4168V1.812C12.4168 1.684 12.3968 1.596 12.3568 1.548C12.3248 1.492 12.2368 1.464 12.0928 1.464H10.7608V0.323999ZM6.40481 9H5.14481C4.87281 9 4.69281 8.956 4.60481 8.868C4.52481 8.78 4.48481 8.596 4.48481 8.316V0.804C4.48481 0.66 4.52481 0.544 4.60481 0.456C4.68481 0.368 4.78881 0.323999 4.91681 0.323999H6.40481V9ZM6.89681 0.323999H9.96881C10.0968 0.323999 10.2008 0.368 10.2808 0.456C10.3608 0.544 10.4008 0.66 10.4008 0.804V8.124H9.15281C8.91281 8.124 8.74081 8.06 8.63681 7.932C8.53281 7.796 8.48081 7.58 8.48081 7.284V1.812C8.48081 1.684 8.46081 1.596 8.42081 1.548C8.38881 1.492 8.30081 1.464 8.15681 1.464H6.89681V0.323999ZM18.0918 9H17.9478C17.6278 9 17.3598 8.976 17.1438 8.928C16.9358 8.88 16.7518 8.784 16.5918 8.64C16.4398 8.488 16.3198 8.32 16.2318 8.136C16.1518 7.952 16.0878 7.676 16.0398 7.308C15.9678 6.756 15.9318 6.016 15.9318 5.088C15.9318 4.152 15.9358 3.492 15.9438 3.108C15.9598 2.724 15.9918 2.352 16.0398 1.992C16.0878 1.624 16.1518 1.352 16.2318 1.176C16.3198 0.992 16.4398 0.828 16.5918 0.684C16.7518 0.532 16.9358 0.436 17.1438 0.396C17.3598 0.348 17.6278 0.323999 17.9478 0.323999H18.0918V9ZM18.5718 0.323999H20.0958C20.6798 0.323999 21.1198 0.424 21.4158 0.624C21.7198 0.824 21.8718 1.172 21.8718 1.668V2.748C21.8718 2.916 21.8158 3 21.7038 3H20.1918C20.0798 3 20.0118 2.984 19.9878 2.952C19.9638 2.92 19.9518 2.852 19.9518 2.748V1.812C19.9518 1.684 19.9318 1.596 19.8918 1.548C19.8598 1.492 19.7718 1.464 19.6278 1.464H18.5718V0.323999ZM20.1918 6.324H21.7038C21.8158 6.324 21.8718 6.408 21.8718 6.576V7.656C21.8718 8.152 21.7198 8.5 21.4158 8.7C21.1198 8.9 20.6798 9 20.0958 9H18.5718V7.86H19.6278C19.7718 7.86 19.8598 7.836 19.8918 7.788C19.9318 7.732 19.9518 7.64 19.9518 7.512V6.576C19.9518 6.472 19.9638 6.404 19.9878 6.372C20.0118 6.34 20.0798 6.324 20.1918 6.324Z" fill="white"/>
<path d="M2.772 9V10H3.772V9H2.772ZM0.972 8.868L0.23206 9.54067L0.248067 9.55828L0.264893 9.57511L0.972 8.868ZM0.972 0.456L0.264892 -0.251106L0.248067 -0.23428L0.232061 -0.216674L0.972 0.456ZM2.772 0.323999H3.772V-0.676001H2.772V0.323999ZM2.772 8H1.512V10H2.772V8ZM1.512 8C1.42244 8 1.39577 7.99201 1.41045 7.9956C1.41996 7.99793 1.452 8.00645 1.4971 8.02866C1.54275 8.05115 1.60996 8.09175 1.67911 8.16089L0.264893 9.57511C0.486767 9.79698 0.74882 9.89275 0.935547 9.9384C1.13023 9.98599 1.32956 10 1.512 10V8ZM1.71194 8.19533C1.77986 8.27004 1.81635 8.3394 1.83442 8.38036C1.8526 8.42156 1.85849 8.44839 1.85918 8.45157C1.86007 8.45569 1.85796 8.44707 1.8558 8.42211C1.8537 8.39769 1.852 8.36285 1.852 8.316H-0.148C-0.148 8.49645 -0.135754 8.68977 -0.0951764 8.87643C-0.0575882 9.04934 0.0241795 9.312 0.23206 9.54067L1.71194 8.19533ZM1.852 8.316V1.008H-0.148V8.316H1.852ZM1.852 1.008C1.852 0.961149 1.8537 0.926308 1.8558 0.901888C1.85796 0.876925 1.86007 0.868311 1.85918 0.872429C1.85849 0.875608 1.8526 0.902435 1.83442 0.94364C1.81635 0.984602 1.77986 1.05396 1.71194 1.12867L0.232061 -0.216674C0.0241795 0.0119951 -0.0575882 0.274664 -0.0951764 0.44757C-0.135754 0.634227 -0.148 0.827547 -0.148 1.008H1.852ZM1.67911 1.16311C1.60996 1.23225 1.54275 1.27285 1.4971 1.29534C1.452 1.31755 1.41996 1.32607 1.41045 1.3284C1.39577 1.33199 1.42244 1.324 1.512 1.324V-0.676001C1.32956 -0.676001 1.13023 -0.661989 0.935546 -0.614399C0.748819 -0.568755 0.486766 -0.47298 0.264892 -0.251106L1.67911 1.16311ZM1.512 1.324H2.772V-0.676001H1.512V1.324ZM1.772 0.323999V9H3.772V0.323999H1.772ZM10.7608 0.323999V-0.676001H9.76081V0.323999H10.7608ZM13.8808 0.624L13.3209 1.45265L13.3312 1.45942L13.8808 0.624ZM14.2048 8.868L13.4977 8.16089L13.4809 8.17772L13.4649 8.19533L14.2048 8.868ZM12.4168 9H11.4168V10H12.4168V9ZM12.3568 1.548L11.4886 2.04414L11.5322 2.12056L11.5886 2.18818L12.3568 1.548ZM10.7608 1.464H9.76081V2.464H10.7608V1.464ZM6.40481 9V10H7.40481V9H6.40481ZM4.60481 8.868L3.86487 9.54067L3.88088 9.55828L3.89771 9.57511L4.60481 8.868ZM4.60481 0.456L5.34475 1.12867L5.34475 1.12867L4.60481 0.456ZM6.40481 0.323999H7.40481V-0.676001H6.40481V0.323999ZM6.89681 0.323999V-0.676001H5.89681V0.323999H6.89681ZM10.2808 0.456L9.54087 1.12867L9.54087 1.12867L10.2808 0.456ZM10.4008 8.124V9.124H11.4008V8.124H10.4008ZM8.63681 7.932L7.84246 8.53945L7.85141 8.55116L7.8607 8.56259L8.63681 7.932ZM8.42081 1.548L7.55257 2.04414L7.59624 2.12056L7.65259 2.18818L8.42081 1.548ZM6.89681 1.464H5.89681V2.464H6.89681V1.464ZM10.7608 1.324H12.5608V-0.676001H10.7608V1.324ZM12.5608 1.324C13.0602 1.324 13.2651 1.41482 13.321 1.45259L14.4407 -0.204589C13.9046 -0.566825 13.2294 -0.676001 12.5608 -0.676001V1.324ZM13.3312 1.45942C13.3267 1.45644 13.3189 1.45015 13.3116 1.44138C13.3046 1.43287 13.3037 1.42898 13.3064 1.43527C13.3132 1.45073 13.3368 1.5175 13.3368 1.668H15.3368C15.3368 0.970108 15.112 0.236987 14.4304 -0.211417L13.3312 1.45942ZM13.3368 1.668V8.316H15.3368V1.668H13.3368ZM13.3368 8.316C13.3368 8.41126 13.3286 8.44252 13.3312 8.43143C13.3331 8.42374 13.3411 8.39244 13.3629 8.3474C13.385 8.30194 13.4261 8.23255 13.4977 8.16089L14.9119 9.57511C15.1377 9.34933 15.2321 9.0817 15.2764 8.89657C15.323 8.70148 15.3368 8.50074 15.3368 8.316H13.3368ZM13.4649 8.19533C13.54 8.11264 13.6162 8.06392 13.6685 8.03695C13.7201 8.01037 13.7578 7.99997 13.7703 7.99686C13.7904 7.99182 13.7674 8 13.6768 8V10C13.8582 10 14.0592 9.98618 14.2553 9.93714C14.4411 9.89071 14.7192 9.78883 14.9448 9.54067L13.4649 8.19533ZM13.6768 8H12.4168V10H13.6768V8ZM13.4168 9V1.812H11.4168V9H13.4168ZM13.4168 1.812C13.4168 1.65532 13.4078 1.24709 13.125 0.907818L11.5886 2.18818C11.4728 2.04919 11.4372 1.91792 11.4267 1.87162C11.4149 1.81971 11.4168 1.79428 11.4168 1.812H13.4168ZM13.2251 1.05186C13.0399 0.727923 12.7504 0.589476 12.57 0.532073C12.3891 0.47452 12.2169 0.464 12.0928 0.464V2.464C12.1127 2.464 12.0565 2.46748 11.9636 2.43793C11.8712 2.40852 11.6417 2.31208 11.4886 2.04414L13.2251 1.05186ZM12.0928 0.464H10.7608V2.464H12.0928V0.464ZM11.7608 1.464V0.323999H9.76081V1.464H11.7608ZM6.40481 8H5.14481V10H6.40481V8ZM5.14481 8C5.05526 8 5.02858 7.99201 5.04327 7.9956C5.05278 7.99793 5.08481 8.00645 5.12991 8.02866C5.17556 8.05115 5.24277 8.09175 5.31192 8.16089L3.89771 9.57511C4.11958 9.79698 4.38163 9.89275 4.56836 9.9384C4.76304 9.98599 4.96237 10 5.14481 10V8ZM5.34475 8.19533C5.41268 8.27004 5.44916 8.3394 5.46723 8.38036C5.48541 8.42156 5.4913 8.44839 5.49199 8.45157C5.49288 8.45569 5.49077 8.44707 5.48862 8.42211C5.48651 8.39769 5.48481 8.36285 5.48481 8.316H3.48481C3.48481 8.49645 3.49706 8.68977 3.53764 8.87643C3.57522 9.04934 3.65699 9.312 3.86487 9.54067L5.34475 8.19533ZM5.48481 8.316V0.804H3.48481V8.316H5.48481ZM5.48481 0.804C5.48481 0.82413 5.48201 0.871691 5.46019 0.93499C5.43738 1.00113 5.39897 1.06904 5.34475 1.12867L3.86487 -0.216674C3.5838 0.0925086 3.48481 0.466406 3.48481 0.804H5.48481ZM5.34475 1.12867C5.29264 1.186 5.22088 1.24055 5.13245 1.27797C5.04577 1.31464 4.96887 1.324 4.91681 1.324V-0.676001C4.53119 -0.676001 4.15004 -0.530355 3.86487 -0.216672L5.34475 1.12867ZM4.91681 1.324H6.40481V-0.676001H4.91681V1.324ZM5.40481 0.323999V9H7.40481V0.323999H5.40481ZM6.89681 1.324H9.96881V-0.676001H6.89681V1.324ZM9.96881 1.324C9.91676 1.324 9.83986 1.31464 9.75317 1.27797C9.66474 1.24055 9.59299 1.186 9.54087 1.12867L11.0208 -0.216671C10.7356 -0.530355 10.3544 -0.676001 9.96881 -0.676001V1.324ZM9.54087 1.12867C9.48666 1.06904 9.44825 1.00113 9.42544 0.93499C9.40361 0.871691 9.40081 0.82413 9.40081 0.804H11.4008C11.4008 0.466407 11.3018 0.0925089 11.0208 -0.216673L9.54087 1.12867ZM9.40081 0.804V8.124H11.4008V0.804H9.40081ZM10.4008 7.124H9.15281V9.124H10.4008V7.124ZM9.15281 7.124C9.11719 7.124 9.13852 7.11868 9.19255 7.13878C9.25447 7.16182 9.34004 7.2117 9.41293 7.30141L7.8607 8.56259C8.22887 9.01573 8.7535 9.124 9.15281 9.124V7.124ZM9.43117 7.32455C9.45844 7.3602 9.47432 7.39068 9.4828 7.40983C9.49115 7.42866 9.49302 7.43802 9.49204 7.43395C9.49107 7.42993 9.48809 7.41599 9.48544 7.38996C9.48282 7.36407 9.48081 7.32915 9.48081 7.284H7.48081C7.48081 7.6559 7.53834 8.14176 7.84246 8.53945L9.43117 7.32455ZM9.48081 7.284V1.812H7.48081V7.284H9.48081ZM9.48081 1.812C9.48081 1.65532 9.47176 1.24709 9.18904 0.907818L7.65259 2.18818C7.53676 2.04919 7.5012 1.91792 7.49068 1.87162C7.47888 1.81971 7.48081 1.79428 7.48081 1.812H9.48081ZM9.28905 1.05186C9.10395 0.727923 8.81442 0.589476 8.63401 0.532073C8.45313 0.47452 8.28094 0.464 8.15681 0.464V2.464C8.17668 2.464 8.12049 2.46748 8.02761 2.43793C7.9352 2.40852 7.70568 2.31208 7.55257 2.04414L9.28905 1.05186ZM8.15681 0.464H6.89681V2.464H8.15681V0.464ZM7.89681 1.464V0.323999H5.89681V1.464H7.89681ZM18.0918 9V10H19.0918V9H18.0918ZM17.1438 8.928L16.9189 9.90242L16.9269 9.90419L17.1438 8.928ZM16.5918 8.64L15.8847 9.34711L15.9033 9.3657L15.9228 9.38329L16.5918 8.64ZM16.2318 8.136L15.3147 8.53473L15.3219 8.55123L15.3296 8.56746L16.2318 8.136ZM16.0398 7.308L17.0314 7.17866L17.0314 7.17866L16.0398 7.308ZM15.9438 3.108L14.9446 3.06637L14.9442 3.07677L14.944 3.08717L15.9438 3.108ZM16.0398 1.992L17.031 2.12416L17.0314 2.12134L16.0398 1.992ZM16.2318 1.176L15.3296 0.744544L15.3254 0.75333L15.3214 0.762196L16.2318 1.176ZM16.5918 0.684L17.2795 1.40995L17.2805 1.409L16.5918 0.684ZM17.1438 0.396L17.3326 1.37801L17.3467 1.3753L17.3607 1.37219L17.1438 0.396ZM18.0918 0.323999H19.0918V-0.676001H18.0918V0.323999ZM18.5718 0.323999V-0.676001H17.5718V0.323999H18.5718ZM21.4158 0.624L20.8559 1.45265L20.8662 1.45942L21.4158 0.624ZM19.8918 1.548L19.0235 2.04414L19.0672 2.12056L19.1236 2.18818L19.8918 1.548ZM18.5718 1.464H17.5718V2.464H18.5718V1.464ZM21.4158 8.7L20.8661 7.86452L20.8559 7.87141L21.4158 8.7ZM18.5718 9H17.5718V10H18.5718V9ZM18.5718 7.86V6.86H17.5718V7.86H18.5718ZM19.8918 7.788L19.078 7.20676L19.0687 7.21988L19.0597 7.2333L19.8918 7.788ZM19.9878 6.372L19.1878 5.772L19.1878 5.772L19.9878 6.372ZM18.0918 8H17.9478V10H18.0918V8ZM17.9478 8C17.6714 8 17.4817 7.97869 17.3607 7.95181L16.9269 9.90419C17.2379 9.97331 17.5841 10 17.9478 10V8ZM17.3686 7.95361C17.3273 7.94407 17.2958 7.92826 17.2607 7.89671L15.9228 9.38329C16.2078 9.63974 16.5442 9.81593 16.9189 9.90239L17.3686 7.95361ZM17.2989 7.93289C17.2227 7.8567 17.1704 7.78085 17.1339 7.70454L15.3296 8.56746C15.4692 8.85915 15.6569 9.1193 15.8847 9.34711L17.2989 7.93289ZM17.1489 7.73727C17.1254 7.68332 17.0757 7.51833 17.0314 7.17866L15.0482 7.43734C15.0999 7.83367 15.1782 8.22068 15.3147 8.53473L17.1489 7.73727ZM17.0314 7.17866C16.9674 6.68837 16.9318 5.99716 16.9318 5.088H14.9318C14.9318 6.03484 14.9681 6.82363 15.0482 7.43734L17.0314 7.17866ZM16.9318 5.088C16.9318 4.15192 16.9358 3.50129 16.9436 3.12883L14.944 3.08717C14.9358 3.4827 14.9318 4.15208 14.9318 5.088H16.9318ZM16.9429 3.14963C16.9577 2.79417 16.9872 2.45244 17.031 2.12416L15.0486 1.85984C14.9963 2.25156 14.9618 2.65383 14.9446 3.06637L16.9429 3.14963ZM17.0314 2.12134C17.0761 1.77885 17.1253 1.62687 17.1421 1.5898L15.3214 0.762196C15.1783 1.07713 15.0995 1.46915 15.0482 1.86266L17.0314 2.12134ZM17.1339 1.60746C17.1677 1.53687 17.214 1.47202 17.2795 1.40995L15.904 -0.0419528C15.6656 0.18398 15.4719 0.44713 15.3296 0.744544L17.1339 1.60746ZM17.2805 1.409C17.308 1.38289 17.3205 1.38033 17.3326 1.37801L16.9549 -0.586007C16.551 -0.508334 16.1955 -0.318891 15.903 -0.0409998L17.2805 1.409ZM17.3607 1.37219C17.4817 1.34531 17.6714 1.324 17.9478 1.324V-0.676001C17.5841 -0.676001 17.2379 -0.649309 16.9268 -0.580187L17.3607 1.37219ZM17.9478 1.324H18.0918V-0.676001H17.9478V1.324ZM17.0918 0.323999V9H19.0918V0.323999H17.0918ZM18.5718 1.324H20.0958V-0.676001H18.5718V1.324ZM20.0958 1.324C20.5952 1.324 20.8 1.41482 20.8559 1.45259L21.9756 -0.204589C21.4395 -0.566825 20.7644 -0.676001 20.0958 -0.676001V1.324ZM20.8662 1.45942C20.8616 1.45644 20.8539 1.45015 20.8466 1.44138C20.8395 1.43287 20.8386 1.42898 20.8414 1.43527C20.8481 1.45073 20.8718 1.5175 20.8718 1.668H22.8718C22.8718 0.970108 22.647 0.236987 21.9654 -0.211417L20.8662 1.45942ZM20.8718 1.668V2.748H22.8718V1.668H20.8718ZM20.8718 2.748C20.8718 2.73759 20.8724 2.69864 20.8851 2.64132C20.8977 2.58437 20.9271 2.48822 20.9977 2.3823C21.0728 2.26971 21.1838 2.16296 21.3301 2.08982C21.4722 2.01875 21.6062 2 21.7038 2V4C22.0511 4 22.4257 3.84591 22.6618 3.4917C22.8503 3.20905 22.8718 2.91153 22.8718 2.748H20.8718ZM21.7038 2H20.1918V4H21.7038V2ZM20.1918 2C20.1726 2 20.2137 1.99761 20.2858 2.01458C20.3239 2.02355 20.3937 2.04318 20.4766 2.08642C20.5597 2.12977 20.6816 2.21044 20.7878 2.352L19.1878 3.552C19.4126 3.85182 19.7194 3.93593 19.8277 3.96142C19.9679 3.99439 20.0989 4 20.1918 4V2ZM20.7878 2.352C20.8574 2.44483 20.8941 2.53017 20.9129 2.58253C20.9325 2.63678 20.9414 2.67974 20.9456 2.70322C20.9534 2.74754 20.9518 2.76779 20.9518 2.748H18.9518C18.9518 2.83221 18.9562 2.93846 18.976 3.05078C18.9921 3.14228 19.0363 3.35004 19.1878 3.552L20.7878 2.352ZM20.9518 2.748V1.812H18.9518V2.748H20.9518ZM20.9518 1.812C20.9518 1.65532 20.9427 1.24709 20.66 0.907816L19.1236 2.18818C19.0077 2.04919 18.9722 1.91792 18.9616 1.87162C18.9499 1.81971 18.9518 1.79428 18.9518 1.812H20.9518ZM20.76 1.05186C20.5749 0.727924 20.2854 0.589476 20.105 0.532074C19.9241 0.47452 19.7519 0.464 19.6278 0.464V2.464C19.6476 2.464 19.5915 2.46748 19.4986 2.43793C19.4062 2.40852 19.1766 2.31207 19.0235 2.04414L20.76 1.05186ZM19.6278 0.464H18.5718V2.464H19.6278V0.464ZM19.5718 1.464V0.323999H17.5718V1.464H19.5718ZM20.1918 7.324H21.7038V5.324H20.1918V7.324ZM21.7038 7.324C21.6062 7.324 21.4722 7.30525 21.3301 7.23418C21.1838 7.16104 21.0728 7.05429 20.9977 6.9417C20.9271 6.83578 20.8977 6.73963 20.8851 6.68268C20.8724 6.62536 20.8718 6.58641 20.8718 6.576H22.8718C22.8718 6.41247 22.8503 6.11495 22.6618 5.8323C22.4257 5.47809 22.0511 5.324 21.7038 5.324V7.324ZM20.8718 6.576V7.656H22.8718V6.576H20.8718ZM20.8718 7.656C20.8718 7.8065 20.8481 7.87327 20.8414 7.88873C20.8386 7.89502 20.8395 7.89113 20.8466 7.88262C20.8539 7.87385 20.8616 7.86756 20.8662 7.86458L21.9654 9.53542C22.647 9.08701 22.8718 8.35389 22.8718 7.656H20.8718ZM20.8559 7.87141C20.8 7.90918 20.5952 8 20.0958 8V10C20.7644 10 21.4395 9.89082 21.9756 9.52859L20.8559 7.87141ZM20.0958 8H18.5718V10H20.0958V8ZM19.5718 9V7.86H17.5718V9H19.5718ZM18.5718 8.86H19.6278V6.86H18.5718V8.86ZM19.6278 8.86C19.7437 8.86 19.9005 8.85159 20.0649 8.80676C20.2135 8.76624 20.515 8.65592 20.7238 8.3427L19.0597 7.2333C19.2365 6.96808 19.4781 6.89376 19.5387 6.87724C19.615 6.85641 19.6558 6.86 19.6278 6.86V8.86ZM20.7055 8.36924C20.933 8.05075 20.9518 7.69398 20.9518 7.512H18.9518C18.9518 7.5282 18.9501 7.50818 18.9596 7.46457C18.9685 7.42367 18.9957 7.322 19.078 7.20676L20.7055 8.36924ZM20.9518 7.512V6.576H18.9518V7.512H20.9518ZM20.9518 6.576C20.9518 6.55621 20.9534 6.57646 20.9456 6.62078C20.9414 6.64426 20.9325 6.68722 20.9129 6.74147C20.8941 6.79383 20.8574 6.87917 20.7878 6.972L19.1878 5.772C19.0363 5.97396 18.9921 6.18172 18.976 6.27322C18.9562 6.38554 18.9518 6.49179 18.9518 6.576H20.9518ZM20.7878 6.972C20.6816 7.11356 20.5597 7.19423 20.4766 7.23758C20.3937 7.28082 20.3239 7.30045 20.2858 7.30942C20.2137 7.32639 20.1726 7.324 20.1918 7.324V5.324C20.0989 5.324 19.9679 5.32961 19.8277 5.36258C19.7194 5.38807 19.4127 5.47217 19.1878 5.772L20.7878 6.972Z" fill="black" mask="url(#path-1-outside-1_407_10)"/>
</svg>
